<svg xmlns="http://www.w3.org/2000/svg" viewBox="0 0 800 600" width="800" height="600">
  <defs>
    <linearGradient id="g5bg" x1="0" y1="0" x2="0" y2="1">
      <stop offset="0" stop-color="#e8dcc4"/>
      <stop offset="100%" stop-color="#c9b795"/>
    </linearGradient>
  </defs>

  <rect width="800" height="600" fill="url(#g5bg)"/>
  <rect y="360" width="800" height="240" fill="#8a7f63"/>

  <!-- warehouse wall lines -->
  <g stroke="#bda98a" stroke-width="4" opacity=".7">
    <path d="M0 120h800M0 200h800M0 280h800"/>
  </g>

  <!-- pallet of briquettes -->
  <g>
    <!-- shrink-wrapped block -->
    <rect x="180" y="150" width="440" height="330" rx="8" fill="#a97741" stroke="#5b3d24" stroke-width="4"/>
    <g fill="#c9944f" stroke="#6b4526" stroke-width="3">
      <rect x="200" y="170" width="120" height="46" rx="6"/>
      <rect x="336" y="170" width="120" height="46" rx="6"/>
      <rect x="472" y="170" width="120" height="46" rx="6"/>
      <rect x="200" y="232" width="120" height="46" rx="6"/>
      <rect x="336" y="232" width="120" height="46" rx="6"/>
      <rect x="472" y="232" width="120" height="46" rx="6"/>
      <rect x="200" y="294" width="120" height="46" rx="6"/>
      <rect x="336" y="294" width="120" height="46" rx="6"/>
      <rect x="472" y="294" width="120" height="46" rx="6"/>
      <rect x="200" y="356" width="120" height="46" rx="6"/>
      <rect x="336" y="356" width="120" height="46" rx="6"/>
      <rect x="472" y="356" width="120" height="46" rx="6"/>
      <rect x="200" y="418" width="120" height="46" rx="6"/>
      <rect x="336" y="418" width="120" height="46" rx="6"/>
      <rect x="472" y="418" width="120" height="46" rx="6"/>
    </g>
    <g fill="#5b3d24">
      <circle cx="260" cy="193" r="8"/><circle cx="396" cy="193" r="8"/><circle cx="532" cy="193" r="8"/>
      <circle cx="260" cy="255" r="8"/><circle cx="396" cy="255" r="8"/><circle cx="532" cy="255" r="8"/>
      <circle cx="260" cy="317" r="8"/><circle cx="396" cy="317" r="8"/><circle cx="532" cy="317" r="8"/>
      <circle cx="260" cy="379" r="8"/><circle cx="396" cy="379" r="8"/><circle cx="532" cy="379" r="8"/>
      <circle cx="260" cy="441" r="8"/><circle cx="396" cy="441" r="8"/><circle cx="532" cy="441" r="8"/>
    </g>
    <!-- wrap sheen -->
    <path d="M180 150h60l-60 330h-0z" fill="#fff" opacity=".14"/>
    <path d="M520 150h44l-70 330h-44z" fill="#fff" opacity=".1"/>

    <!-- pallet -->
    <rect x="160" y="482" width="480" height="20" rx="3" fill="#6b4526"/>
    <rect x="160" y="506" width="480" height="16" rx="3" fill="#5b3d24"/>
    <rect x="180" y="502" width="40" height="24" fill="#4a3524"/>
    <rect x="380" y="502" width="40" height="24" fill="#4a3524"/>
    <rect x="580" y="502" width="40" height="24" fill="#4a3524"/>
  </g>

  <rect y="524" width="800" height="76" fill="#7a705a"/>
</svg>
